<?xml version="1.0" encoding="UTF-8"?>
<svg width="120px" height="30px" viewBox="0 0 120 30" version="1.1" xmlns="http://www.w3.org/2000/svg" xmlns:xlink="http://www.w3.org/1999/xlink">
    <!-- Generator: Sketch 53.1 (72631) - https://sketchapp.com -->
    <title>horizm-logo</title>
    <desc>Created with Sketch.</desc>
    <defs>
        <polygon id="path-1" points="0 0.219570705 18.422875 0.219570705 18.422875 29.0354224 0 29.0354224"></polygon>
        <polygon id="path-3" points="0.166625 0.35882821 4.402875 0.35882821 4.402875 29.4585689 0.166625 29.4585689"></polygon>
        <polygon id="path-5" points="0.372666667 0.331704521 30.0654167 0.331704521 30.0654167 21.8419324 0.372666667 21.8419324"></polygon>
        <path d="M0.401508296,6.84095566 C0.0937405732,7.58741004 0.4413273,8.44536973 1.17714932,8.75758458 L1.17714932,8.75758458 C1.91338612,9.06895788 2.75912519,8.71676943 3.06689291,7.97031505 L3.06689291,7.97031505 C4.28634992,5.01142711 7.1168175,3.09900593 10.2786953,3.09900593 L10.2786953,3.09900593 C14.5866139,3.09900593 18.0915158,6.65413168 18.0915158,11.0242981 L18.0915158,11.0242981 C18.0915158,15.3948853 14.5866139,18.9504318 10.2786953,18.9504318 L10.2786953,18.9504318 C9.80211161,18.9504318 9.32635747,18.9066712 8.86387632,18.8208332 L8.86387632,18.8208332 C8.07952489,18.6765074 7.32711161,19.2020551 7.1831825,19.9981609 L7.1831825,19.9981609 C7.03966817,20.7942667 7.55938914,21.5579728 8.34415535,21.7031401 L8.34415535,21.7031401 C8.9775264,21.8213778 9.62873303,21.8802863 10.2786953,21.8802863 L10.2786953,21.8802863 C16.1785445,21.8802863 20.9800528,17.0102395 20.9800528,11.0242981 L20.9800528,11.0242981 C20.9800528,5.03877746 16.1785445,0.168730669 10.2786953,0.168730669 L10.2786953,0.168730669 C5.94879336,0.168730669 2.07183258,2.78763263 0.401508296,6.84095566" id="path-7"></path>
        <linearGradient x1="49.5271869%" y1="1.93802206e-06%" x2="49.5271869%" y2="100%" id="linearGradient-9">
            <stop stop-color="#7C0150" offset="0%"></stop>
            <stop stop-color="#F61A52" offset="100%"></stop>
        </linearGradient>
    </defs>
    <g id="New" stroke="none" stroke-width="1" fill="none" fill-rule="evenodd">
        <g id="Horizm-option2.2" transform="translate(-123.000000, -12.000000)">
            <g id="menu" transform="translate(0.000000, -25.000000)">
                <g id="horizm-logo" transform="translate(123.000000, 37.000000)">
                    <g id="Group-14">
                        <g id="Group-3" transform="translate(0.000000, 0.423146)">
                            <mask id="mask-2" fill="white">
                                <use xlink:href="#path-1"></use>
                            </mask>
                            <g id="Clip-2"></g>
                            <path d="M0.259541667,28.771379 C0.0862083333,28.5953501 -4.16666683e-05,28.3723519 -4.16666683e-05,28.1015382 L-4.16666683e-05,1.15345497 C-4.16666683e-05,0.855559855 0.0862083333,0.62579132 0.259541667,0.463726221 C0.432458333,0.301237975 0.652041667,0.219570705 0.919125,0.219570705 L2.75704167,0.219570705 C3.04995833,0.219570705 3.276625,0.301237975 3.436625,0.463726221 C3.596625,0.62579132 3.676625,0.855559855 3.676625,1.15345497 L3.676625,10.6095092 C4.449125,9.60876781 5.36079167,8.84414213 6.414125,8.31647848 C7.46620833,7.78923797 8.76495833,7.52519458 10.310375,7.52519458 C12.8682917,7.52519458 14.859125,8.35710054 16.2849583,10.0209125 C17.7099583,11.6851476 18.422875,13.8833935 18.422875,16.6160734 L18.422875,28.1015382 C18.422875,28.3723519 18.3362083,28.5953501 18.1632917,28.771379 C17.9895417,28.9478311 17.7695417,29.0354224 17.5037083,29.0354224 L15.625375,29.0354224 C15.3587083,29.0354224 15.139125,28.9478311 14.9662083,28.771379 C14.7924583,28.5953501 14.7062083,28.3723519 14.7062083,28.1015382 L14.7062083,16.8598058 C14.7062083,14.9116394 14.2399583,13.396775 13.3074583,12.3139432 C12.3745417,11.2323808 11.0299583,10.6907533 9.27120833,10.6907533 C7.56579167,10.6907533 6.20704167,11.238728 5.19495833,12.3346774 C4.18204167,13.4302036 3.676625,14.9387208 3.676625,16.8598058 L3.676625,28.1015382 C3.676625,28.3723519 3.58954167,28.5953501 3.416625,28.771379 C3.242875,28.9478311 3.02329167,29.0354224 2.75704167,29.0354224 L0.919125,29.0354224 C0.652041667,29.0354224 0.432458333,28.9478311 0.259541667,28.771379" id="Fill-1" fill="#071227" mask="url(#mask-2)"></path>
                        </g>
                        <path d="M46.5367917,29.1945255 C46.3630417,29.0184966 46.2767917,28.7954984 46.2767917,28.5246846 L46.2767917,9.3282217 C46.2767917,9.05825425 46.3630417,8.82806257 46.5367917,8.6380698 C46.7097083,8.44934647 46.9292917,8.35413852 47.1959583,8.35413852 L48.8742917,8.35413852 C49.1672083,8.35413852 49.400125,8.44257613 49.573875,8.61775877 C49.7467917,8.79421085 49.833875,9.03074973 49.833875,9.3282217 L49.833875,11.1138998 C50.9255417,9.27405895 52.7780417,8.35413852 55.3884583,8.35413852 L56.9472083,8.35413852 C57.2397083,8.35413852 57.466375,8.43538264 57.626375,8.59787089 C57.786375,8.75993599 57.8659583,8.99012767 57.8659583,9.28759964 L57.8659583,10.7889233 C57.8659583,11.0601602 57.786375,11.2831584 57.626375,11.4587642 C57.466375,11.6352163 57.2397083,11.7228076 56.9472083,11.7228076 L54.6697083,11.7228076 C53.203875,11.7228076 52.051375,12.1556864 51.212625,13.0214441 C50.3730417,13.887625 49.9534583,15.0643953 49.9534583,16.5521783 L49.9534583,28.5246846 C49.9534583,28.7954984 49.860125,29.0184966 49.673875,29.1945255 C49.4872083,29.3709776 49.2605417,29.4585689 48.9942917,29.4585689 L47.1959583,29.4585689 C46.9292917,29.4585689 46.7097083,29.3709776 46.5367917,29.1945255" id="Fill-4" fill="#071227"></path>
                        <g id="Group-8" transform="translate(60.416667, 0.000000)">
                            <mask id="mask-4" fill="white">
                                <use xlink:href="#path-3"></use>
                            </mask>
                            <g id="Clip-7"></g>
                            <path d="M0.746208333,29.1945255 C0.572875,29.0184966 0.486625,28.7954984 0.486625,28.5246846 L0.486625,9.28759964 C0.486625,9.01720904 0.572875,8.79421085 0.746208333,8.61775877 C0.919125,8.44257613 1.13870833,8.35413852 1.405375,8.35413852 L3.164125,8.35413852 C3.42995833,8.35413852 3.64995833,8.44257613 3.82370833,8.61775877 C3.99620833,8.79421085 4.08329167,9.01720904 4.08329167,9.28759964 L4.08329167,28.5246846 C4.08329167,28.7954984 3.99620833,29.0184966 3.82370833,29.1945255 C3.64995833,29.3709776 3.42995833,29.4585689 3.164125,29.4585689 L1.405375,29.4585689 C1.13870833,29.4585689 0.919125,29.3709776 0.746208333,29.1945255 M0.426625,4.11294141 C0.252875,3.93733562 0.166625,3.71391429 0.166625,3.44352369 L0.166625,1.33286908 C0.166625,1.06290163 0.252875,0.832709946 0.426625,0.642717179 C0.599125,0.453993852 0.819541667,0.358785895 1.08579167,0.358785895 L3.444125,0.358785895 C3.70954167,0.358785895 3.93620833,0.453993852 4.122875,0.642717179 C4.309125,0.832709946 4.402875,1.06290163 4.402875,1.33286908 L4.402875,3.44352369 C4.402875,3.71391429 4.309125,3.93733562 4.122875,4.11294141 C3.93620833,4.28939349 3.70954167,4.37698481 3.444125,4.37698481 L1.08579167,4.37698481 C0.819541667,4.37698481 0.599125,4.28939349 0.426625,4.11294141" id="Fill-6" fill="#071227" mask="url(#mask-4)"></path>
                        </g>
                        <path d="M68.9952917,29.1945255 C68.8215417,29.0184966 68.7352917,28.7954984 68.7352917,28.5246846 L68.7352917,27.185426 C68.7352917,26.9691982 68.7957083,26.7457769 68.9157083,26.5160083 C69.0352917,26.2862398 69.161125,26.0763591 69.2952917,25.8867895 L80.444875,11.4790752 L70.0140417,11.4790752 C69.7477917,11.4790752 69.534875,11.3914839 69.374875,11.215455 C69.214875,11.0398492 69.1352917,10.8164278 69.1352917,10.5456141 L69.1352917,9.28759964 C69.1352917,9.01720904 69.214875,8.79421085 69.374875,8.61775877 C69.534875,8.44257613 69.7477917,8.35413852 70.0140417,8.35413852 L84.161125,8.35413852 C84.427375,8.35413852 84.6469583,8.44257613 84.8202917,8.61775877 C84.993625,8.79421085 85.0802917,9.01720904 85.0802917,9.28759964 L85.0802917,10.7081024 C85.0802917,11.0059975 84.893625,11.4249125 84.521125,11.9661168 L73.531125,26.333209 L84.9602917,26.333209 C85.2540417,26.333209 85.479875,26.4144532 85.639875,26.5765183 C85.799875,26.7390065 85.8794583,26.9691982 85.8794583,27.2666702 L85.8794583,28.5246846 C85.8794583,28.7954984 85.7927917,29.0184966 85.619875,29.1945255 C85.446125,29.3709776 85.2265417,29.4585689 84.9602917,29.4585689 L69.6544583,29.4585689 C69.3877917,29.4585689 69.1682083,29.3709776 68.9952917,29.1945255" id="Fill-9" fill="#071227"></path>
                        <g id="Group-13" transform="translate(89.583333, 7.616637)">
                            <mask id="mask-6" fill="white">
                                <use xlink:href="#path-5"></use>
                            </mask>
                            <g id="Clip-12"></g>
                            <path d="M0.63225,21.577889 C0.458916667,21.40186 0.372666667,21.1788618 0.372666667,20.9080481 L0.372666667,1.67096311 C0.372666667,1.40057251 0.458916667,1.17757432 0.63225,1.00112224 C0.805166667,0.825939602 1.02475,0.737501989 1.29141667,0.737501989 L2.97016667,0.737501989 C3.236,0.737501989 3.44975,0.825939602 3.60975,1.00112224 C3.76933333,1.17757432 3.84933333,1.40057251 3.84933333,1.67096311 L3.84933333,3.05084376 C5.28808333,1.23850741 7.23266667,0.331704521 9.68391667,0.331704521 C12.6143333,0.331704521 14.69225,1.57660145 15.9189167,4.06554901 C16.5576667,2.92897758 17.4701667,2.02302098 18.6555833,1.34598662 C19.841,0.6702217 21.1664167,0.331704521 22.63225,0.331704521 C24.8164167,0.331704521 26.6014167,1.08955986 27.98725,2.60442423 C29.37225,4.1201349 30.0655833,6.31161049 30.0655833,9.17927414 L30.0655833,20.9080481 C30.0655833,21.1788618 29.9785,21.40186 29.8055833,21.577889 C29.6318333,21.754341 29.41225,21.8419324 29.1464167,21.8419324 L27.4276667,21.8419324 C27.161,21.8419324 26.9414167,21.754341 26.7685,21.577889 C26.5951667,21.40186 26.5089167,21.1788618 26.5089167,20.9080481 L26.5089167,9.54444955 C26.5089167,7.38005533 26.0689167,5.83091609 25.18975,4.89745497 C24.3105833,3.96399385 23.1518333,3.49726329 21.7130833,3.49726329 C20.4339167,3.49726329 19.3351667,3.97795769 18.416,4.93807703 C17.4968333,5.89861953 17.03725,7.43379494 17.03725,9.54444955 L17.03725,20.9080481 C17.03725,21.1788618 16.9501667,21.40186 16.7776667,21.577889 C16.6039167,21.754341 16.3843333,21.8419324 16.1180833,21.8419324 L14.3593333,21.8419324 C14.0930833,21.8419324 13.8730833,21.754341 13.7001667,21.577889 C13.5268333,21.40186 13.4405833,21.1788618 13.4405833,20.9080481 L13.4405833,9.54444955 C13.4405833,7.40755986 12.981,5.86519096 12.0618333,4.917766 C11.1426667,3.9707642 10.0035,3.49726329 8.64475,3.49726329 C7.366,3.49726329 6.26683333,3.9707642 5.34766667,4.917766 C4.4285,5.86519096 3.96933333,7.39359602 3.96933333,9.50382749 L3.96933333,20.9080481 C3.96933333,21.1788618 3.88225,21.40186 3.70975,21.577889 C3.536,21.754341 3.316,21.8419324 3.05016667,21.8419324 L1.29141667,21.8419324 C1.02475,21.8419324 0.805166667,21.754341 0.63225,21.577889" id="Fill-11" fill="#071227" mask="url(#mask-6)"></path>
                        </g>
                    </g>
                    <g id="Group-17" transform="translate(21.923077, 7.692308)">
                        <mask id="mask-8" fill="white">
                            <use xlink:href="#path-7"></use>
                        </mask>
                        <g id="Clip-16"></g>
                        <path d="M0.401508296,6.84095566 C0.0937405732,7.58741004 0.4413273,8.44536973 1.17714932,8.75758458 L1.17714932,8.75758458 C1.91338612,9.06895788 2.75912519,8.71676943 3.06689291,7.97031505 L3.06689291,7.97031505 C4.28634992,5.01142711 7.1168175,3.09900593 10.2786953,3.09900593 L10.2786953,3.09900593 C14.5866139,3.09900593 18.0915158,6.65413168 18.0915158,11.0242981 L18.0915158,11.0242981 C18.0915158,15.3948853 14.5866139,18.9504318 10.2786953,18.9504318 L10.2786953,18.9504318 C9.80211161,18.9504318 9.32635747,18.9066712 8.86387632,18.8208332 L8.86387632,18.8208332 C8.07952489,18.6765074 7.32711161,19.2020551 7.1831825,19.9981609 L7.1831825,19.9981609 C7.03966817,20.7942667 7.55938914,21.5579728 8.34415535,21.7031401 L8.34415535,21.7031401 C8.9775264,21.8213778 9.62873303,21.8802863 10.2786953,21.8802863 L10.2786953,21.8802863 C16.1785445,21.8802863 20.9800528,17.0102395 20.9800528,11.0242981 L20.9800528,11.0242981 C20.9800528,5.03877746 16.1785445,0.168730669 10.2786953,0.168730669 L10.2786953,0.168730669 C5.94879336,0.168730669 2.07183258,2.78763263 0.401508296,6.84095566" id="Fill-15" fill="url(#linearGradient-9)" mask="url(#mask-8)"></path>
                    </g>
                    <path d="M31.7307692,16.1538462 C30.3502598,16.1538462 29.2307692,17.2730115 29.2307692,18.6536367 C29.2307692,20.0346808 30.3502598,21.1538462 31.7307692,21.1538462 C33.1112787,21.1538462 34.2307692,20.0346808 34.2307692,18.6536367 L34.2307692,16.1538462 L31.7307692,16.1538462 Z" id="Fill-18" fill="#071227"></path>
                </g>
            </g>
        </g>
    </g>
</svg>